<svg xmlns="http://www.w3.org/2000/svg" xmlns:xlink="http://www.w3.org/1999/xlink"viewBox="0 0 415 86"><defs><circle id="s" fill="#f9ad1b" r="5.1" cx="8" cy="8"/><path id="r" fill="#fed32b" d="M8 0l0.3 2.5h-0.6z"/><radialGradient id="g" cx=".5" cy=".5" r="1" fx=".5" fy="1"><stop offset="10%" stop-color="#ffffff"/><stop offset="50%" stop-color="#f9ad1b"/></radialGradient><g id="t"><use xlink:href="#s"/><ellipse fill="url(#g)" rx="3.8" ry="2.7" cx="9.5" cy="9.5" opacity=".3" transform="rotate(-45, 9.5, 9.5)"/></g><g id="q"><use xlink:href="#r"/><use xlink:href="#r" transform="rotate(10, 8, 8)"/><use xlink:href="#r" transform="rotate(20, 8, 8)"/><use xlink:href="#r" transform="rotate(30, 8, 8)"/><use xlink:href="#r" transform="rotate(40, 8, 8)"/><use xlink:href="#r" transform="rotate(50, 8, 8)"/><use xlink:href="#r" transform="rotate(60, 8, 8)"/><use xlink:href="#r" transform="rotate(70, 8, 8)"/><use xlink:href="#r" transform="rotate(80, 8, 8)"/></g><g id="j"><g fill="#3B9DD8"><path d="m20.4 33.5c-0.4 1.8-0.8 3.4-1.4 4.7-0.6 1.3-1.3 2.4-2.2 3.2-0.8 0.9-1.7 1.5-2.7 2-1 0.5-2 0.8-3.1 1-1.1 0.2-2.1 0.3-3.2 0.3-1.6 0-3-0.1-4-0.4-1-0.3-1.8-0.6-2.3-1.1-0.6-0.4-0.9-0.9-1.1-1.5-0.2-0.5-0.3-1-0.3-1.5 0-0.9 0.3-1.6 0.9-2.2 0.6-0.6 1.4-0.9 2.3-0.9 0.2 0 0.5 0 0.7 0 0.2 0 0.4 0.1 0.7 0.2 0.4 0.1 0.7 0.3 1 0.6 0.3 0.2 0.5 0.5 0.7 0.8 0.2 0.3 0.3 0.6 0.5 1 0.1 0.4 0.2 0.7 0.3 1.1 0.1 0.2 0.1 0.4 0.2 0.7 0.1 0.2 0.2 0.5 0.3 0.7 0.1 0.2 0.3 0.4 0.5 0.6 0.2 0.2 0.4 0.2 0.7 0.2 0.5 0 1-0.2 1.5-0.5 0.5-0.3 0.9-1 1.2-1.9 0.3-0.9 0.6-2.1 0.8-3.6 0.2-1.5 0.3-3.5 0.3-5.8l0-25.2c0-0.8-0.2-1.4-0.5-1.9-0.3-0.5-0.7-0.9-1.2-1.2-0.5-0.3-0.9-0.5-1.4-0.6-0.4-0.1-0.8-0.2-1-0.2-0.2 0-0.3-0.1-0.4-0.2-0.1-0.1-0.1-0.2-0.1-0.3 0-0.1 0.1-0.2 0.1-0.3 0.1-0.1 0.2-0.1 0.4-0.1l16.5 0c0.2 0 0.3 0 0.4 0.1 0.1 0.1 0.1 0.2 0.1 0.3 0 0.1 0 0.2-0.1 0.3-0.1 0.1-0.2 0.1-0.3 0.2-0.2 0-0.5 0.1-1 0.2-0.4 0.1-0.9 0.3-1.4 0.6-0.5 0.3-0.9 0.7-1.2 1.2-0.3 0.5-0.5 1.2-0.5 2l0 21c0 2.4-0.2 4.6-0.5 6.4M60.6 22"/><path d="m60.6 22c0 2.3-0.2 4.4-0.6 6.3-0.4 1.8-1.2 3.4-2.2 4.7-1 1.3-2.3 2.2-4 2.9-1.7 0.7-3.7 1-6.2 1-2.4 0-4.4-0.3-6.1-0.7-1.7-0.5-3.1-1.3-4.2-2.3-1.1-1.1-1.9-2.4-2.4-4-0.5-1.6-0.8-3.5-0.8-5.8l0-17.9c0-0.8-0.2-1.4-0.5-2-0.3-0.5-0.7-0.9-1.2-1.2-0.5-0.3-0.9-0.5-1.4-0.6-0.4-0.1-0.8-0.2-1-0.2-0.2 0-0.3-0.1-0.3-0.2-0.1-0.1-0.1-0.2-0.1-0.3 0-0.1 0.1-0.2 0.1-0.3 0.1-0.1 0.2-0.1 0.4-0.1l16.5 0c0.2 0 0.3 0 0.4 0.1 0.1 0.1 0.1 0.2 0.1 0.3 0 0.1 0 0.2-0.1 0.3-0.1 0.1-0.2 0.1-0.3 0.2-0.2 0-0.5 0.1-1 0.2-0.4 0.1-0.9 0.3-1.4 0.6-0.5 0.3-0.9 0.7-1.2 1.2-0.3 0.5-0.5 1.2-0.5 2l0 19.6c0 2.9 0.6 5.2 1.9 6.7 1.3 1.6 3.2 2.3 5.8 2.3 0.4 0 0.8 0 1.2-0.1 0.4-0.1 0.9-0.2 1.3-0.3 0.4-0.1 0.8-0.3 1.2-0.5 0.4-0.2 0.7-0.4 1-0.6 0.8-0.6 1.4-1.3 1.9-2.1 0.4-0.9 0.8-1.8 1-2.8 0.2-1 0.3-2 0.3-3 0-1 0.1-2 0.1-2.8l0-16.4c0-0.8-0.2-1.4-0.5-2-0.3-0.5-0.7-0.9-1.2-1.2-0.5-0.3-0.9-0.5-1.4-0.6-0.4-0.1-0.8-0.2-1-0.2-0.2 0-0.3-0.1-0.3-0.2-0.1-0.1-0.1-0.2-0.1-0.3 0-0.1 0.1-0.2 0.1-0.3 0.1-0.1 0.2-0.1 0.4-0.1l10.1 0c0.2 0 0.3 0 0.4 0.1 0.1 0.1 0.1 0.2 0.1 0.3 0 0.1 0 0.2-0.1 0.3-0.1 0.1-0.2 0.1-0.3 0.2-0.2 0-0.5 0.1-1 0.2-0.4 0.1-0.9 0.3-1.4 0.6-0.5 0.3-0.9 0.7-1.2 1.2-0.3 0.5-0.5 1.2-0.5 2l0 15.9z"/><path d="m103.2 1.4c0.1 0.1 0.1 0.2 0.1 0.3 0 0.1 0 0.2-0.1 0.3-0.1 0.1-0.2 0.1-0.4 0.2-0.2 0-0.5 0.1-1 0.2-0.4 0.1-0.9 0.3-1.4 0.6-0.5 0.3-0.9 0.7-1.2 1.2-0.3 0.5-0.5 1.2-0.5 2l0 29.7c0 0.3-0.1 0.4-0.3 0.5-0.2 0.1-0.4 0-0.6-0.2-0.1-0.1-0.3-0.3-0.8-0.9-0.5-0.5-1.1-1.3-1.8-2.2-0.8-0.9-1.6-1.9-2.6-3.1s-2.1-2.4-3.2-3.7c-1.1-1.3-2.2-2.7-3.4-4.1-1.2-1.4-2.3-2.7-3.4-4.1-1.1-1.3-2.1-2.6-3.1-3.7-1-1.2-1.8-2.2-2.6-3.1-0.7-0.9-1.3-1.6-1.8-2.1-0.4-0.5-0.7-0.8-0.7-0.8-0.1-0.1-0.2-0.2-0.3-0.1-0.1 0-0.1 0.1-0.1 0.3l0 22.7c0 0.8 0.2 1.5 0.5 2 0.3 0.5 0.7 0.9 1.2 1.2 0.5 0.3 0.9 0.5 1.4 0.6 0.4 0.1 0.8 0.2 1 0.2 0.2 0 0.3 0.1 0.3 0.2 0.1 0.1 0.1 0.2 0.1 0.3 0 0.1-0.1 0.2-0.1 0.3-0.1 0.1-0.2 0.1-0.4 0.1l-9.8 0c-0.2 0-0.3 0-0.4-0.1-0.1-0.1-0.1-0.2-0.1-0.3 0-0.1 0-0.2 0.1-0.3 0.1-0.1 0.2-0.1 0.3-0.2 0.2 0 0.5-0.1 1-0.2 0.4-0.1 0.9-0.3 1.4-0.6 0.5-0.3 0.9-0.7 1.2-1.2 0.3-0.5 0.5-1.1 0.5-2l0-25.2c0-0.8-0.2-1.4-0.5-1.9-0.3-0.5-0.7-0.9-1.2-1.2-0.5-0.3-0.9-0.5-1.4-0.6-0.4-0.1-0.8-0.2-1-0.2-0.2 0-0.3-0.1-0.3-0.2-0.1-0.1-0.1-0.2-0.1-0.3 0-0.1 0.1-0.2 0.1-0.3 0.1-0.1 0.2-0.1 0.4-0.1l10.2 0c0.5 0 1 0.2 1.3 0.5 0.3 0.4 0.8 1 1.5 1.8 0.7 0.8 1.4 1.7 2.2 2.6 0.8 1 1.7 2.1 2.7 3.2 1 1.1 1.9 2.3 2.9 3.4 1 1.1 1.9 2.2 2.8 3.3 0.9 1 1.7 2 2.4 2.8 0.7 0.8 1.2 1.5 1.7 2 0.4 0.5 0.6 0.8 0.7 0.8 0.1 0.1 0.3 0.2 0.3 0.2 0.1 0 0.1-0.1 0.1-0.3l0-15.4c0-0.8-0.2-1.4-0.5-1.9-0.3-0.5-0.7-0.9-1.2-1.2-0.5-0.3-0.9-0.5-1.4-0.6-0.4-0.1-0.8-0.2-1-0.2-0.2 0-0.3-0.1-0.3-0.2-0.1-0.1-0.1-0.2-0.1-0.3 0-0.1 0.1-0.2 0.1-0.3 0.1-0.1 0.2-0.1 0.4-0.1l9.8 0c0.2 0 0.3 0 0.4 0.1"/><path d="m135 28.7c0.1-0.3 0.3-0.4 0.5-0.4 0.2 0 0.3 0.2 0.3 0.5l0 6.9c0 0.3-0.2 0.5-0.5 0.5l-27.4 0c-0.2 0-0.3 0-0.4-0.1-0.1-0.1-0.1-0.2-0.1-0.3 0-0.1 0-0.2 0.1-0.3 0.1-0.1 0.2-0.1 0.4-0.2 0.2 0 0.5-0.1 1-0.2 0.4-0.1 0.9-0.3 1.4-0.6 0.5-0.3 0.9-0.7 1.2-1.2 0.3-0.5 0.5-1.1 0.5-2l0-25.2c0-0.8-0.2-1.4-0.5-2-0.3-0.5-0.7-0.9-1.2-1.2-0.5-0.3-0.9-0.5-1.4-0.6-0.4-0.1-0.8-0.2-1-0.2-0.2 0-0.3-0.1-0.3-0.2-0.1-0.1-0.1-0.2-0.1-0.3 0-0.1 0.1-0.2 0.1-0.3 0.1-0.1 0.2-0.1 0.4-0.1l25.1 0c0.4 0 0.5 0.2 0.5 0.5l0 5.4c0 0.3-0.1 0.4-0.3 0.4-0.2 0-0.4-0.1-0.5-0.3-0.1-0.2-0.3-0.6-0.6-1.1-0.3-0.5-0.7-1-1.3-1.5-0.5-0.5-1.2-1-2.1-1.3-0.8-0.4-1.8-0.6-3-0.6-0.8 0-1.5 0.1-2.2 0.2-0.7 0.1-1.2 0.4-1.7 0.7-0.5 0.3-0.8 0.7-1.1 1.2-0.3 0.5-0.4 1-0.4 1.7l0 10.9 0-0.4c0 0.1 0 0.2 0.1 0.3 0.1 0.1 0.2 0.1 0.3 0.1l3.3 0c0.8 0 1.4-0.2 1.9-0.5 0.5-0.3 0.9-0.7 1.2-1.1 0.3-0.4 0.5-0.8 0.6-1.2 0.1-0.4 0.2-0.7 0.2-0.9 0-0.1 0.1-0.2 0.2-0.3 0.1-0.1 0.2-0.1 0.3-0.1 0.1 0 0.2 0.1 0.3 0.1 0.1 0.1 0.1 0.2 0.1 0.3l0 8.8c0 0.1 0 0.2-0.1 0.3-0.1 0.1-0.2 0.1-0.3 0.1-0.1 0-0.2 0-0.3-0.1-0.1-0.1-0.1-0.2-0.2-0.3 0-0.2-0.1-0.5-0.2-0.9-0.1-0.4-0.3-0.8-0.6-1.2-0.3-0.4-0.7-0.8-1.2-1.1-0.5-0.3-1.1-0.5-1.9-0.5l-3.3 0c-0.1 0-0.2 0-0.3 0.1-0.1 0.1-0.1 0.2-0.1 0.3l0-0.4 0 11.9c0 1.2 0.5 2.2 1.6 2.8 1.1 0.6 2.6 1 4.5 1 0.9 0 1.8-0.1 2.5-0.4 0.8-0.2 1.5-0.6 2.1-0.9 0.6-0.4 1.1-0.8 1.6-1.3 0.5-0.5 0.8-0.9 1.2-1.4 0.3-0.4 0.6-0.8 0.7-1.2 0.2-0.3 0.3-0.6 0.4-0.8"/></g><g fill="#fbad18"><path d="m193.3 35.3c0.2 0 0.3 0.1 0.3 0.2 0.1 0.1 0.1 0.2 0.1 0.3 0 0.1-0.1 0.2-0.1 0.3-0.1 0.1-0.2 0.1-0.4 0.1l-16.5 0c-0.2 0-0.3 0-0.4-0.1-0.1-0.1-0.1-0.2-0.1-0.3 0-0.1 0-0.2 0.1-0.3 0.1-0.1 0.2-0.1 0.4-0.2 0.2 0 0.5-0.1 1-0.2 0.4-0.1 0.9-0.3 1.4-0.6 0.5-0.3 0.9-0.7 1.2-1.2 0.3-0.5 0.5-1.1 0.5-2l0-23.9c0-0.1 0-0.2-0.1-0.2-0.1 0-0.2 0-0.3 0.2 0 0.1-0.2 0.4-0.4 0.9-0.2 0.6-0.5 1.3-0.9 2.2-0.4 0.9-0.8 2-1.3 3.2-0.5 1.2-1 2.5-1.5 3.8-0.5 1.3-1.1 2.7-1.6 4.1-0.6 1.4-1.1 2.8-1.6 4.1-0.5 1.3-1 2.6-1.5 3.8-0.5 1.2-0.9 2.2-1.2 3.1-0.4 0.9-0.7 1.6-0.9 2.2-0.2 0.5-0.3 0.8-0.4 0.9-0.1 0.2-0.2 0.3-0.4 0.3s-0.3-0.1-0.4-0.3c0 0-0.1-0.3-0.4-0.9-0.2-0.6-0.5-1.3-0.9-2.3-0.4-1-0.8-2.1-1.3-3.4-0.5-1.3-1-2.6-1.6-4.1-0.6-1.4-1.1-2.9-1.7-4.4-0.6-1.5-1.2-3-1.7-4.4-0.6-1.4-1.1-2.8-1.6-4.1-0.5-1.3-0.9-2.4-1.3-3.4-0.4-1-0.7-1.8-0.9-2.4-0.2-0.6-0.4-0.9-0.4-1-0.1-0.1-0.1-0.2-0.2-0.2-0.1 0-0.2 0.1-0.2 0.3l0 1.2 0 3 0 4.2 0 4.8 0 12.9c0 0.8 0.2 1.5 0.5 2 0.3 0.5 0.7 0.9 1.2 1.2 0.5 0.3 0.9 0.5 1.4 0.6 0.4 0.1 0.8 0.2 1 0.2 0.2 0 0.3 0.1 0.3 0.2 0.1 0.1 0.1 0.2 0.1 0.3 0 0.1-0.1 0.2-0.1 0.3-0.1 0.1-0.2 0.1-0.4 0.1l-9.7 0c-0.2 0-0.3 0-0.4-0.1-0.1-0.1-0.1-0.2-0.1-0.3 0-0.1 0-0.2 0.1-0.3 0.1-0.1 0.2-0.1 0.3-0.2 0.2 0 0.5-0.1 1-0.2 0.4-0.1 0.9-0.3 1.4-0.6 0.5-0.3 0.9-0.7 1.2-1.2 0.3-0.5 0.5-1.1 0.5-2l0-25.2c0-0.8-0.2-1.4-0.5-1.9-0.3-0.5-0.7-0.9-1.2-1.2-0.4-0.3-0.9-0.5-1.4-0.6-0.4-0.1-0.8-0.2-1-0.2-0.2 0-0.3-0.1-0.3-0.2-0.1-0.1-0.1-0.2-0.1-0.3 0-0.1 0.1-0.2 0.1-0.3 0.1-0.1 0.2-0.1 0.4-0.1l12.7 0c0.5 0 0.8 0.2 1 0.6 0.2 0.4 0.4 1.1 0.7 1.9 0.3 0.8 0.7 1.7 1.1 2.7 0.4 1 0.8 2.1 1.3 3.3 0.4 1.2 0.9 2.4 1.3 3.5 0.4 1.2 0.9 2.3 1.3 3.4 0.4 1.1 0.8 2.1 1.1 3 0.3 0.9 0.6 1.6 0.8 2.2 0.2 0.6 0.4 0.9 0.4 1 0 0.1 0.1 0.1 0.2 0.1 0.1 0 0.1 0 0.2-0.1 0-0.1 0.2-0.4 0.4-1 0.2-0.6 0.5-1.3 0.9-2.2 0.4-0.9 0.8-1.9 1.2-3 0.5-1.1 0.9-2.3 1.4-3.4 0.5-1.2 0.9-2.4 1.4-3.6 0.5-1.2 0.9-2.3 1.3-3.3 0.4-1 0.8-2 1.1-2.8 0.3-0.8 0.6-1.4 0.8-1.9 0.2-0.4 0.5-0.6 1.1-0.6l11.4 0c0.2 0 0.3 0 0.4 0.1 0.1 0.1 0.1 0.2 0.1 0.3 0 0.1 0 0.2-0.1 0.3-0.1 0.1-0.2 0.1-0.3 0.2-0.2 0-0.5 0.1-1 0.2-0.5 0.1-0.9 0.3-1.4 0.6-0.5 0.3-0.9 0.7-1.2 1.2-0.3 0.5-0.5 1.2-0.5 2l0 25.2c0 0.8 0.2 1.5 0.5 2 0.3 0.5 0.7 0.9 1.2 1.2 0.5 0.3 0.9 0.5 1.4 0.6 0.4 0.1 0.8 0.2 1 0.2"/><path d="m225.6 28.7c0.1-0.3 0.3-0.4 0.5-0.4 0.2 0 0.3 0.2 0.3 0.5l0 6.9c0 0.3-0.2 0.5-0.5 0.5l-27.4 0c-0.2 0-0.3 0-0.4-0.1-0.1-0.1-0.1-0.2-0.1-0.3 0-0.1 0-0.2 0.1-0.3 0.1-0.1 0.2-0.1 0.4-0.2 0.2 0 0.5-0.1 1-0.2 0.4-0.1 0.9-0.3 1.4-0.6 0.5-0.3 0.9-0.7 1.2-1.2 0.3-0.5 0.5-1.1 0.5-2l0-25.2c0-0.8-0.2-1.4-0.5-2-0.3-0.5-0.7-0.9-1.2-1.2-0.5-0.3-0.9-0.5-1.4-0.6-0.4-0.1-0.8-0.2-1-0.2-0.2 0-0.3-0.1-0.4-0.2-0.1-0.1-0.1-0.2-0.1-0.3 0-0.1 0.1-0.2 0.1-0.3 0.1-0.1 0.2-0.1 0.4-0.1l25.1 0c0.4 0 0.5 0.2 0.5 0.5l0 5.4c0 0.3-0.1 0.4-0.3 0.4-0.2 0-0.4-0.1-0.5-0.3-0.1-0.2-0.3-0.6-0.6-1.1-0.3-0.5-0.7-1-1.3-1.5-0.5-0.5-1.2-1-2.1-1.3-0.8-0.4-1.8-0.6-3-0.6-0.8 0-1.5 0.1-2.2 0.2-0.7 0.1-1.2 0.4-1.7 0.7-0.5 0.3-0.8 0.7-1.1 1.2-0.3 0.5-0.4 1-0.4 1.7l0 10.9 0-0.4c0 0.1 0 0.2 0.1 0.3 0.1 0.1 0.2 0.1 0.3 0.1l3.3 0c0.8 0 1.4-0.2 1.9-0.5 0.5-0.3 0.9-0.7 1.2-1.1 0.3-0.4 0.5-0.8 0.6-1.2 0.1-0.4 0.2-0.7 0.2-0.9 0-0.1 0.1-0.2 0.2-0.3 0.1-0.1 0.2-0.1 0.3-0.1 0.1 0 0.2 0.1 0.3 0.1 0.1 0.1 0.1 0.2 0.1 0.3l0 8.8c0 0.1 0 0.2-0.1 0.3-0.1 0.1-0.2 0.1-0.3 0.1-0.1 0-0.2 0-0.3-0.1-0.1-0.1-0.2-0.2-0.2-0.3 0-0.2-0.1-0.5-0.2-0.9-0.1-0.4-0.3-0.8-0.6-1.2-0.3-0.4-0.7-0.8-1.2-1.1-0.5-0.3-1.1-0.5-1.9-0.5l-3.3 0c-0.1 0-0.2 0-0.3 0.1-0.1 0.1-0.1 0.2-0.1 0.3l0-0.4 0 11.9c0 1.2 0.5 2.2 1.6 2.8 1.1 0.6 2.6 1 4.5 1 0.9 0 1.8-0.1 2.5-0.4 0.8-0.2 1.5-0.6 2.1-0.9 0.6-0.4 1.1-0.8 1.6-1.3 0.5-0.5 0.8-0.9 1.2-1.4 0.3-0.4 0.6-0.8 0.7-1.2 0.2-0.3 0.3-0.6 0.4-0.8"/><path d="m249.4 1.3c2.9 0 5.5 0.5 7.6 1.3 2.1 0.9 3.9 2.1 5.3 3.7 1.4 1.6 2.4 3.4 3.1 5.5 0.7 2.1 1 4.3 1 6.8 0 2.4-0.4 4.7-1.1 6.9-0.7 2.1-1.8 4-3.2 5.6-1.4 1.6-3.3 2.8-5.4 3.8-2.2 0.9-4.7 1.4-7.7 1.4l-18 0c-0.2 0-0.3 0-0.4-0.1-0.1-0.1-0.1-0.2-0.1-0.3 0-0.1 0-0.2 0.1-0.3 0.1-0.1 0.2-0.1 0.3-0.2 0.2 0 0.5-0.1 1-0.2 0.4-0.1 0.9-0.3 1.4-0.6 0.5-0.3 0.9-0.7 1.2-1.2 0.3-0.5 0.5-1.1 0.5-2l0-25.2c0-0.8-0.2-1.4-0.5-2-0.3-0.5-0.7-0.9-1.2-1.2-0.5-0.3-0.9-0.5-1.4-0.6-0.4-0.1-0.8-0.2-1-0.2-0.2 0-0.3-0.1-0.3-0.2-0.1-0.1-0.1-0.2-0.1-0.3 0-0.1 0.1-0.2 0.1-0.3 0.1-0.1 0.2-0.1 0.4-0.1l18.4 0zm-0.4 33.2c1.3 0 2.5-0.4 3.4-1.2 0.9-0.8 1.7-1.9 2.3-3.3 0.6-1.4 1.1-3.1 1.3-5 0.3-1.9 0.4-4.1 0.4-6.4 0-2.3-0.1-4.4-0.4-6.3-0.3-1.9-0.7-3.5-1.3-4.9-0.6-1.4-1.3-2.4-2.2-3.3-0.9-0.8-2-1.3-3.2-1.4-0.2 0-0.5 0-0.8 0-0.4 0-0.8 0-1.2 0-0.4 0-0.8 0-1.2 0l-1 0c-0.5 0-1 0.1-1.3 0.4-0.3 0.3-0.5 0.7-0.5 1.2l0 19.3c0 1.9 0.1 3.6 0.3 5 0.2 1.4 0.5 2.5 0.9 3.3 0.4 0.9 1 1.5 1.7 1.9 0.7 0.4 1.6 0.6 2.6 0.6"/><path d="m288.2 35.3c0.2 0 0.3 0.1 0.3 0.2 0.1 0.1 0.1 0.2 0.1 0.3 0 0.1-0.1 0.2-0.1 0.3-0.1 0.1-0.2 0.1-0.4 0.1l-16.5 0c-0.2 0-0.3 0-0.4-0.1-0.1-0.1-0.1-0.2-0.1-0.3 0-0.1 0-0.2 0.1-0.3 0.1-0.1 0.2-0.1 0.4-0.2 0.2 0 0.5-0.1 1-0.2 0.4-0.1 0.9-0.3 1.4-0.6 0.5-0.3 0.9-0.7 1.2-1.2 0.3-0.5 0.5-1.1 0.5-2l0-25.2c0-0.8-0.2-1.4-0.5-1.9-0.3-0.5-0.7-0.9-1.2-1.2-0.5-0.3-0.9-0.5-1.4-0.6-0.4-0.1-0.8-0.2-1-0.2-0.2 0-0.3-0.1-0.4-0.2-0.1-0.1-0.1-0.2-0.1-0.3 0-0.1 0-0.2 0.1-0.3 0.1-0.1 0.2-0.1 0.4-0.1l16.5 0c0.2 0 0.3 0 0.4 0.1 0.1 0.1 0.1 0.2 0.1 0.3 0 0.1 0 0.2-0.1 0.3-0.1 0.1-0.2 0.1-0.3 0.2-0.2 0-0.5 0.1-1 0.2-0.4 0.1-0.9 0.3-1.4 0.6-0.5 0.3-0.9 0.7-1.2 1.2-0.3 0.5-0.5 1.2-0.5 2l0 25.2c0 0.8 0.2 1.5 0.5 2 0.3 0.5 0.7 0.9 1.2 1.2 0.5 0.3 0.9 0.5 1.4 0.6 0.4 0.1 0.8 0.2 1 0.2"/><path d="m328.2 35.2c0.1 0 0.2 0.1 0.3 0.2 0.1 0.1 0.1 0.2 0.1 0.3 0 0.1-0.1 0.2-0.2 0.3-0.1 0.1-0.2 0.1-0.4 0.1l-16.2 0c-0.1 0-0.2 0-0.3-0.1-0.1-0.1-0.1-0.1-0.2-0.2 0-0.1 0-0.2 0.1-0.3 0.1-0.1 0.2-0.2 0.3-0.2 0.2-0.1 0.5-0.1 0.9-0.3 0.4-0.1 0.9-0.4 1.3-0.7 0.4-0.3 0.7-0.7 0.9-1.3 0.2-0.5 0.2-1.2-0.1-2-0.1-0.2-0.2-0.6-0.4-1-0.1-0.4-0.3-0.9-0.5-1.5-0.2-0.5-0.4-1.1-0.5-1.7-0.2-0.6-0.4-1.1-0.5-1.6-0.2-0.5-0.3-0.9-0.4-1.2-0.1-0.3-0.2-0.5-0.2-0.6 0-0.2-0.1-0.2-0.3-0.2l-11.1 0c-0.2 0-0.3 0.1-0.3 0.2-0.1 0.2-0.2 0.5-0.3 1-0.1 0.5-0.3 1-0.5 1.6-0.2 0.6-0.4 1.2-0.6 1.9-0.2 0.7-0.4 1.3-0.6 1.8-0.2 0.6-0.3 1.1-0.4 1.5-0.1 0.4-0.2 0.7-0.2 0.8-0.1 0.6-0.1 1.2 0.1 1.6 0.2 0.4 0.5 0.7 0.8 0.9 0.3 0.2 0.7 0.4 1.1 0.5 0.4 0.1 0.7 0.2 1 0.3 0.2 0 0.3 0.1 0.3 0.2 0 0.1 0.1 0.2 0 0.3 0 0.1-0.1 0.2-0.2 0.2-0.1 0.1-0.2 0.1-0.3 0.1l-9.5 0c-0.1 0-0.2 0-0.3-0.1-0.1-0.1-0.1-0.1-0.1-0.2 0-0.1 0-0.2 0.1-0.3 0.1-0.1 0.2-0.2 0.3-0.2 0.5-0.1 0.9-0.3 1.3-0.4 0.4-0.2 0.8-0.4 1.2-0.7 0.4-0.3 0.7-0.6 1-1 0.3-0.4 0.6-0.8 0.8-1.3 0.1-0.3 0.3-0.9 0.7-1.8 0.3-1 0.8-2.2 1.3-3.6 0.5-1.4 1.1-3 1.7-4.7 0.6-1.7 1.2-3.5 1.8-5.2 0.6-1.8 1.2-3.5 1.8-5.2 0.6-1.7 1.1-3.2 1.5-4.5 0.4-1.3 0.8-2.4 1.1-3.2 0.3-0.8 0.4-1.2 0.4-1.3 0.1-0.2 0.2-0.3 0.3-0.4 0.1-0.1 0.3-0.2 0.5-0.2 0.4-0.1 0.8-0.2 1.3-0.3 0.5-0.1 1-0.2 1.5-0.4 0.5-0.1 1-0.3 1.6-0.5 0.5-0.2 1-0.3 1.4-0.5 0.3-0.1 0.5-0.2 0.6-0.1 0.1 0.1 0.2 0.2 0.3 0.4 0 0.1 0.2 0.5 0.4 1.3 0.3 0.8 0.6 1.9 1.1 3.2 0.4 1.3 0.9 2.8 1.5 4.5 0.5 1.7 1.1 3.4 1.7 5.2 0.6 1.8 1.2 3.5 1.8 5.3 0.6 1.7 1.1 3.4 1.6 4.8 0.5 1.5 0.9 2.7 1.3 3.8 0.3 1.1 0.6 1.8 0.7 2.2 0.3 0.7 0.6 1.4 0.9 1.9 0.4 0.5 0.7 1 1.2 1.4 0.4 0.4 0.9 0.7 1.3 0.9 0.5 0.2 1 0.4 1.4 0.5m-26.9-14.1c-0.1 0.2 0 0.3 0.2 0.3l9.8 0c0.2 0 0.3-0.1 0.2-0.3 0-0.1-0.1-0.3-0.2-0.8-0.1-0.5-0.3-1-0.6-1.8-0.2-0.7-0.5-1.5-0.8-2.4-0.3-0.9-0.6-1.8-0.9-2.7-0.3-0.9-0.6-1.8-0.9-2.7-0.3-0.9-0.5-1.7-0.8-2.4-0.2-0.7-0.4-1.3-0.6-1.7-0.1-0.4-0.2-0.7-0.2-0.7 0-0.1-0.1-0.2-0.2-0.2-0.1 0-0.2 0.1-0.2 0.2 0 0-0.1 0.3-0.3 0.9-0.2 0.6-0.4 1.4-0.7 2.3-0.3 0.9-0.6 1.9-1 3.1-0.4 1.1-0.7 2.2-1.1 3.3-0.4 1.1-0.7 2.1-1 3.1-0.3 1-0.5 1.7-0.7 2.3"/></g></g></defs><g transform="scale(5.3)"><use xlink:href="#q"/><use xlink:href="#q" transform="rotate(90, 8, 8)"/><use xlink:href="#q" transform="rotate(180, 8, 8)"/><use xlink:href="#q" transform="rotate(270, 8, 8)"/><use xlink:href="#t"/></g><use xlink:href="#j" x="86" y="21"/></svg>