<svg xmlns="http://www.w3.org/2000/svg" viewBox="0 0 245.2 49.8"><g fill="#863987"><path d="M0 28h2.8L3 6.5H0V3.2h11.2c2.9 0 4.8 0.3 6.5 1.6 1.3 1 2.5 2.9 2.5 5.3 0 3.2-2 6.1-5.6 6.4v0.1c3.8 0 7.2 2.5 7.2 6.8 0 4.8-3.4 7.8-10.1 7.8H0V28zM11 28c3.2 0 5.9-1.4 5.9-4.7 0-3.1-2.7-4.6-5.6-4.6H7.4L7.3 28H11zM10.4 15.2c3 0 5-1.6 5-4.5 0-1.9-0.8-3-1.9-3.6 -0.8-0.4-1.6-0.5-3.2-0.5H7.5l-0.1 8.6H10.4z"/><path d="M41 30.3c-1.4 0.6-4.2 1.4-7.3 1.4 -6.9 0-11-4.3-11-10.8 0-6.2 3.5-11 10.2-11 6.2 0 9.4 4.6 9.4 11v0.6H27.4c0 4 3 6.6 7.1 6.6 2.6 0 4.9-0.7 6.7-1.6L41 30.3zM37.6 18.5v-0.4c0-1.7-1.1-4.9-4.9-4.9 -3.8 0-5.1 2.8-5.2 5.3H37.6z"/><path d="M42.3 10.4h3.2l0.1-4.7L50 5.4l-0.2 5h6v3.3h-6c0 3.3-0.1 6.6-0.1 9.7 0 3.8 0.8 4.8 2.9 4.8 1.2 0 2.5-0.4 3.5-0.8L56 30.7c-1.1 0.6-2.8 1-4.6 1 -4.4 0-6.1-1.7-6.1-6.4 0-2.7 0.1-8 0.1-11.6h-3.2V10.4z"/><path d="M57.1 10.4h3.2l0.1-4.7 4.5-0.3 -0.2 5h6v3.3h-6c0 3.3-0.1 6.6-0.1 9.7 0 3.8 0.8 4.8 2.9 4.8 1.2 0 2.5-0.4 3.5-0.8l-0.2 3.3c-1.1 0.6-2.8 1-4.6 1 -4.4 0-6.1-1.7-6.1-6.4 0-2.7 0.1-8 0.1-11.6h-3.2V10.4z"/><path d="M89.6 30.3c-1.4 0.6-4.2 1.4-7.3 1.4 -6.9 0-11-4.3-11-10.8 0-6.2 3.5-11 10.2-11 6.2 0 9.4 4.6 9.4 11v0.6H76c0 4 3 6.6 7.1 6.6 2.6 0 4.9-0.7 6.7-1.6L89.6 30.3zM86.2 18.5v-0.4c0-1.7-1.1-4.9-4.9-4.9 -3.8 0-5.1 2.8-5.2 5.3H86.2z"/><path d="M92.3 28h2.5l0.1-14.2h-3.2v-3.3h7.4c0 1.6 0 3.7-0.2 5.8l0.1 0.1c0.8-3.9 3.1-6.2 6.1-6.2 1.1 0 2.1 0.2 2.5 0.4l-0.5 4c-0.6-0.2-1.1-0.3-2-0.3 -4 0-5.6 3.8-5.7 7.4L99.3 28h3v3.3h-10V28z"/><path d="M108.3 28h2.8l0.2-21.4h-2.9V3.2h12.4c5.8 0 8.5 3.3 8.5 7.4 0 4.8-3.1 7-6.7 7.4v0.1c1.6 0.1 2.6 1.4 3.6 3l3 5.1c0.8 1.3 1.6 1.7 2.5 1.7h1v3.3h-2.6c-2.4 0-3.4-0.2-5.1-3l-3.8-6.5c-1.2-2-1.8-2.4-3.1-2.4h-2.4l-0.1 8.6h3.2v3.3h-10.5V28zM119.2 15.8c3.2 0 5.4-1.7 5.4-4.7 0-2.9-1.8-4.6-5-4.6h-3.7l-0.1 9.3H119.2z"/><path d="M150.8 30.3c-1.4 0.6-4.2 1.4-7.3 1.4 -6.9 0-11-4.3-11-10.8 0-6.2 3.5-11 10.2-11 6.2 0 9.4 4.6 9.4 11v0.6h-14.9c0 4 3 6.6 7.1 6.6 2.6 0 4.9-0.7 6.7-1.6L150.8 30.3zM147.4 18.5v-0.4c0-1.7-1.1-4.9-4.9-4.9 -3.8 0-5.1 2.8-5.2 5.3H147.4z"/><path d="M167.3 13.8c-0.6-0.2-1.6-0.4-2.6-0.4 -4.1 0-6.2 3.1-6.2 7 0 3.6 1.8 7.4 7.3 7.4 2 0 4.3-0.6 5.3-1.2l-0.2 3.9c-0.8 0.4-3.1 1.1-5.7 1.1 -8.3 0-11.2-5.6-11.2-10.8 0-6.4 3.9-11 11.2-11 3.2 0 5 0.7 5.9 1.1v5.9h-3.8V13.8z"/><path d="M173.3 28h2.7l0.1-14.2h-3.2v-3.3h7.6L180.5 28h2.8v3.3h-10V28zM178.3 0c1.7 0 3.1 1.4 3.1 3.1s-1.4 3.1-3.1 3.1 -3.1-1.4-3.1-3.1S176.6 0 178.3 0z"/><path d="M183 10.4h7.2c0 1.5-0.2 3-0.4 4.2h0.1c1.1-2.8 3.4-4.7 6.9-4.7 5 0 8.7 3.7 8.7 9.9 0 6.9-4.1 11.9-11.2 11.9 -1.5 0-2.9-0.2-4.1-0.7l-0.1 6.8h2.3v3.3h-9v-3.3h2.3l0.2-24.1H183V10.4zM190.3 27.3c0.9 0.6 2.3 0.9 4 0.9 4.1 0 6.4-3.6 6.4-7.7 0-3.9-1.7-6.8-5-6.8 -3.6 0-5.4 3-5.4 7.8V27.3z"/><path d="M225.2 30.3c-1.4 0.6-4.2 1.4-7.3 1.4 -6.9 0-11-4.3-11-10.8 0-6.2 3.5-11 10.2-11 6.2 0 9.4 4.6 9.4 11v0.6h-14.9c0 4 3 6.6 7.1 6.6 2.6 0 4.9-0.7 6.7-1.6L225.2 30.3zM221.8 18.5v-0.4c0-1.7-1.1-4.9-4.9-4.9 -3.8 0-5.1 2.8-5.2 5.3H221.8z"/><path d="M240.1 16.4l-0.1-2.5c-0.6-0.4-1.6-0.7-3.4-0.7 -2.1 0-4.2 0.5-4.2 2.5 0 1.6 1.4 2 2.6 2.3l5.1 1c2.4 0.5 5 1.5 5 5.7 0 5.5-4.7 6.9-9.3 6.9 -3.5 0-6.2-0.8-7.6-1.2l-0.1-5.6h4l0.1 2.8c0.8 0.2 2.2 0.8 4.4 0.8 2.1 0 4.2-0.8 4.2-2.9 0-1.8-1.3-2.3-3-2.6l-3.3-0.6c-3.2-0.6-6.7-1.8-6.7-5.8 0-4.9 4.3-6.6 8.8-6.6 3.4 0 6 1 7.2 1.4l0.1 5.1H240.1z"/></g></svg>